<svg xmlns="http://www.w3.org/2000/svg" viewBox="0 0 270.83 94.67"><defs><style>.cls-1{fill:#f8fafc;}</style></defs><title>자산 1</title><g id="레이어_2" data-name="레이어 2"><g id="Object"><path class="cls-1" d="M28.21,4.07l48,13.64V65.47l-48-13.64V4.07M25.13,0V54.15L79.28,69.54V15.39L25.13,0Z"/><polygon class="cls-1" points="54.15 94.67 0 79.28 0 25.13 54.15 40.52 54.15 94.67"/><path class="cls-1" d="M26,3.45,73.4,16.92,53.25,37.07,5.88,23.6,26,3.45M25.13,0,0,25.13,54.15,40.52,79.28,15.39,25.13,0Z"/><polygon class="cls-1" points="57.2 91.62 79.28 69.54 57.2 63.27 57.2 91.62"/><path class="cls-1" d="M96.34,63.93l3.31-4.43a14.91,14.91,0,0,0,10.11,4.17c4.66,0,8.1-2.15,8.1-5.72,0-3.94-3.2-6.49-12.64-6.49v-5c8.24,0,11.36-2.59,11.36-6.1,0-3.14-2.67-5.06-6.69-5.06a13.5,13.5,0,0,0-8.72,3.57l-3.56-4.26a19.35,19.35,0,0,1,12.57-4.84c7.76,0,13.37,3.65,13.37,10.08,0,4.26-3.06,7.13-7.71,8.78v.24c4.94,1.17,9,4.39,9,9.49,0,6.92-6.65,11-14.48,11C103.8,69.32,99.23,66.94,96.34,63.93Z"/><path class="cls-1" d="M133.13,49.39c0-12.89,5.52-19.65,14.19-19.65S161.5,36.5,161.5,49.39,156,69.32,147.32,69.32,133.13,62.2,133.13,49.39Zm22.11,0c0-10.42-3.38-14.21-7.92-14.21s-7.93,3.79-7.93,14.21,3.38,14.49,7.93,14.49S155.24,59.8,155.24,49.39Zm-12-.27a4.12,4.12,0,1,1,4.12,4.3A4,4,0,0,1,143.2,49.12Z"/><path class="cls-1" d="M169.56,29.42h7V45.14H190V29.42h7V68.6h-7V51.24H176.57V68.6h-7Z"/><path class="cls-1" d="M204.91,53.85a14.92,14.92,0,0,1,15.17-15.4c8.79,0,13.66,5.83,13.66,14a23,23,0,0,1-.31,3.48H209.86V51H229l-1.33,1.53c0-5.81-2.73-8.76-7.34-8.76-4.87,0-8.62,3.5-8.62,10.07,0,6.84,4.13,10.11,10.25,10.11a16,16,0,0,0,8.25-2.41l2.37,4.29A21.4,21.4,0,0,1,221,69.32C212,69.32,204.91,63.64,204.91,53.85Z"/><path class="cls-1" d="M241.2,80.06l1.3-5.36a8.61,8.61,0,0,0,2.46.4c3.75,0,5.9-2.07,7.09-5l.71-1.85L239.57,39.17h6.93l6,14.39c1.1,2.69,2.2,5.72,3.27,8.69H256c.9-2.87,2-5.92,2.91-8.69l5.31-14.39h6.59L258.54,69.94c-2.53,6.61-6.06,10.72-13.15,10.72A14.43,14.43,0,0,1,241.2,80.06Z"/></g></g></svg>